<svg version="1" xmlns="http://www.w3.org/2000/svg" width="853.333" height="853.333" viewBox="0 0 640.000000 640.000000"><path d="M302 .6c-52.4 4.5-89.2 14.7-130.9 36.5-70.3 36.8-125 99.7-152.2 175.3C6.3 247.3.7 280.5.7 320c0 54.6 11.2 100.7 36.4 148.9 36.7 70.3 99.7 125 175.3 152.2 34.9 12.6 68.1 18.2 107.6 18.2 54.6 0 100.7-11.2 148.9-36.4 70.3-36.7 125-99.7 152.2-175.3 12.6-34.9 18.2-68.1 18.2-107.6 0-26.3-1.2-39.9-5.9-63-18.9-94.2-79.8-175.6-164.5-219.9C433 18.4 398.3 7.5 358 2.5 345.9 1 311.1-.2 302 .6zM345.7 61c21.6 1.9 46.5 7.9 67.3 16 3 1.2 6.3 2.4 7.3 2.7 2.5.8 23.9 11.5 30.7 15.4 24.6 14 51.9 37.2 69.5 59 3.3 4.1 6.5 7.9 7 8.5 1.6 1.8 8.1 11.3 12.7 18.4 4.3 6.8 19 35 20.1 38.5.3 1.1 1.5 4.5 2.7 7.5 5.7 14.6 11.1 33.6 13 45.5.4 2.7 1.3 8.4 2.1 12.5 1.9 10.5 1.9 59.7 0 70-.8 4.1-1.7 9.7-2.2 12.5-3.5 22.4-15 53.9-29.3 80.3-14.5 26.8-39.7 56.5-63.6 75.2-2.5 1.9-5.2 4-6 4.7-4.6 3.7-13.9 10.3-14.5 10.3-.3 0-2.5 1.3-4.8 2.8-4.3 2.9-24.3 14.2-25.2 14.2-.2 0-3 1.2-6.2 2.6-8.3 3.7-11.3 4.9-15.3 6.3-36.5 12.8-62.5 16.9-99.5 15.7-10.4-.3-21.9-1.1-25.5-1.6-3.6-.6-9-1.5-12-1.9-6.1-.9-14.4-2.9-29.5-7.3-9.5-2.7-13.9-4.3-21.2-7.4-1.7-.8-3.4-1.4-3.8-1.4-1.1 0-21.7-10.2-29.2-14.4-6-3.4-22.2-13.9-25.9-16.9-6.7-5.4-16.2-13.4-17.9-15.1-1.1-1.2-3.8-3.7-6-5.6-3.6-3.2-18.6-19.6-24-26.1-13.3-16.1-29.7-44.1-37.9-64.9-1-2.5-2.3-5.6-2.8-7-4.3-10.6-10.1-31.7-11.8-43-.5-3-1.4-8.4-2.1-12-1.8-8.9-1.8-61.1 0-70 .7-3.6 1.6-9 2.1-12 2-13 6.8-30.1 12.7-45.5 8.4-22.1 25.2-52.1 37.4-66.8 14.5-17.5 19.4-22.9 27.7-30.6 16.9-15.5 28.3-23.9 47.7-35.3 6.1-3.5 27.7-14.3 30.2-15.1 1-.3 4.3-1.5 7.3-2.7 20.2-7.9 46.6-14.3 66.5-16 11.9-1.1 40.6-1.1 52.2 0z"/><path d="M278 312.5V377h25v-25.8c0-34.1 1.3-41.4 8.4-46.5 2.6-1.8 4.4-2.2 11.2-2.2 9.3 0 11.4 1.1 14.5 8 1.7 3.6 1.9 7.1 1.9 35.2V377h26.2l-.4-35.8c-.4-34.4-.5-35.9-2.7-41.5-1.2-3.1-3.4-7.1-4.8-8.8-3.7-4.3-11.3-7.8-19.1-8.8-12.9-1.6-23.6 2-31.1 10.5l-4.1 4.7V248h-25v64.5zM211.2 282.1c-9.7 1.2-19.3 6.1-25.8 13.1-6.6 7.2-8.9 11.6-11.5 21.5-3.5 13.7-2.3 26.6 3.7 38.4 7.7 15.5 22.3 23.9 41.3 23.9 14 0 23.4-3.5 32.3-11.8 5.5-5.1 10.5-14.5 11.4-21.6l.7-4.6h-24l-1.3 4.4c-1.5 5.5-6.3 11.4-10.6 13.2-4.9 2-12.8 1.8-17.4-.6-8.1-4.1-12.2-13.3-12.2-27.5 0-18.4 8.1-29.5 21.4-29.5 9.7 0 16.5 4.9 18.3 13.2l.7 2.8h25.1l-.7-4.3c-3.3-20.8-25.4-34-51.4-30.6zM420 282.1c-8 1-18.9 6.2-24.7 11.9-15.2 14.9-19.3 38.5-10.3 58.9 7.4 16.8 22.5 26.1 42.5 26.1 18.8 0 32.7-7.5 39.8-21.7 5-9.8 5.3-9.3-6.9-9.3h-10.7l-3.5 4.1c-4.7 5.5-10.1 7.9-17.7 7.8-13.2 0-20.5-6-22.2-18.4l-.6-4.5H473v-5.8c-.1-12.8-4.8-26.3-12.2-35-9.7-11.3-23.8-16.2-40.8-14.1zm17 21.1c4.5 2.3 8 7.5 9.6 14l.6 2.8h-20.6c-17.8 0-20.6-.2-20.6-1.5 0-2.5 2.9-8.8 5.3-11.4 5.7-6.2 17.6-8 25.7-3.9z"/></svg>